<?xml version="1.0" encoding="UTF-8"?>
<svg fill="none" version="1.1" viewBox="0 0 545 153" xmlns="http://www.w3.org/2000/svg">
 <defs>
  <clipPath id="clip0_2_2619">
   <rect width="1024" height="1024" fill="#fff"/>
  </clipPath>
 </defs>
 <path d="M0 24.48C0 10.9601 10.9601 0 24.48 0H520.2C533.72 0 544.68 10.9601 544.68 24.48V128.52C544.68 142.04 533.72 153 520.2 153H24.48C10.9601 153 0 142.04 0 128.52V24.48Z" fill="#fd0" style="fill:#9abeff"/>
 <g transform="translate(-192.36 -654.85)" style="fill:none">
  <g clip-path="url(#clip0_2_2619)" fill="#fff">
   <path d="m365.47 674.2c-31.574 0-57.153 25.579-57.153 57.153s25.579 57.153 57.153 57.153 57.153-25.579 57.153-57.153-25.579-57.153-57.153-57.153zm23.301 73.405c0.0799 4.0506-0.71941 11.325-8.549 13.277-0.62668 0.15248-1.2694 0.22961-1.9144 0.22981-13.741 0.0859-42.395 0.16986-42.395 0.16986s-8.7768 0-9.3683-8.7568c-0.19983-14.838-0.0919-42.615-0.0919-42.615v-0.69743c0-1.0691 0.8453-3.1974 3.0295-3.1974h62.784c4.425-0.0186 8.7492 1.3197 12.39 3.8348 3.5071 2.45 6.9303 6.4107 8.1333 12.767 2.8037 14.764-8.2912 25.861-24.018 24.987zm11.546-27.803c1.253 1.4548 2.2541 3.5031 2.2541 6.3328 0 6.9163-3.5631 9.64-7.4419 10.897-2.0167 0.25259-4.0548 0.28756-6.079 0.10392v-20.537h4.1266c1.3505-0.0108 2.6874 0.26978 3.9196 0.82252 1.2322 0.55295 2.3307 1.3649 3.2205 2.3808zm-27.497 15.503c-4.5023 5.2537-14.496 14.374-14.496 14.374-0.15467 0.12869-0.34552 0.20583-0.54615 0.22081-0.20063 0.015-0.40087-0.0328-0.57293-0.13688-0.14128-0.0981-0.27497-0.20703-0.39967-0.32574-1.5987-1.5987-12.174-11.017-14.588-14.29-2.5619-3.4891-3.7609-9.756-0.32773-13.409s10.861-3.9248 15.767 1.4708c0 0 5.6573-6.4407 12.534-3.4811 6.8763 2.9596 6.6345 10.877 2.6298 15.577z" style="stroke-width:.19984"/>
   <path d="m372.82 735.3c-4.5023 5.2537-14.496 14.374-14.496 14.374-0.15467 0.12869-0.34552 0.20583-0.54615 0.22081-0.20063 0.015-0.40087-0.0328-0.57293-0.13688-0.14128-0.0981-0.27497-0.20703-0.39967-0.32574-1.5987-1.5987-12.174-11.017-14.588-14.29-2.5619-3.4891-3.7609-9.756-0.32773-13.409s10.861-3.9248 15.767 1.4708c0 0 5.6573-6.4407 12.534-3.4811 6.8763 2.9596 6.6345 10.877 2.6298 15.577z" style="fill:#ff837d"/>
  </g>
 </g>
 <text x="355.16174" y="98.885124" style="fill:#ffffff;font-family:'Open Sans';font-size:63.788px;font-weight:bold;stroke-linecap:round;stroke-linejoin:round;stroke-width:21.746;text-align:center;text-anchor:middle" xml:space="preserve"><tspan x="355.16174" y="98.885124" style="font-family:'Open Sans';font-weight:bold;stroke-width:21.746">Ko-Fi</tspan></text>
</svg>
